<?xml version="1.0" standalone="no"?>
<!DOCTYPE svg PUBLIC "-//W3C//DTD SVG 20010904//EN"
 "http://www.w3.org/TR/2001/REC-SVG-20010904/DTD/svg10.dtd">
<svg version="1.0" xmlns="http://www.w3.org/2000/svg"
 width="196.000000pt" height="196.000000pt" viewBox="0 0 196.000000 196.000000"
 preserveAspectRatio="xMidYMid meet">
<metadata>
Created by potrace 1.11, written by Peter Selinger 2001-2013
</metadata>
<g transform="translate(0.000000,196.000000) scale(0.100000,-0.100000)"
fill="#000000" stroke="none">
<path d="M836 1723 c-2 -3 -12 -6 -23 -8 -10 -1 -17 -8 -15 -14 1 -6 -5 -12
-13 -12 -37 -3 -58 -16 -49 -31 4 -6 3 -8 -3 -5 -5 3 -27 2 -48 -4 -26 -7 -34
-13 -25 -19 9 -6 6 -10 -11 -16 -13 -4 -27 -7 -31 -6 -4 1 -5 -8 -3 -21 4 -22
4 -22 -12 -2 -13 16 -15 17 -10 3 4 -10 2 -18 -3 -18 -6 0 -10 -9 -10 -21 0
-11 -4 -17 -10 -14 -5 3 -16 0 -23 -7 -12 -10 -12 -15 1 -27 24 -24 42 -22 42
5 0 17 6 24 20 24 13 0 20 7 20 20 0 14 6 20 17 18 10 -2 19 5 22 17 3 11 14
20 24 21 51 2 58 5 55 20 -2 13 7 17 41 20 24 2 45 5 47 7 3 2 -5 15 -15 29
-15 18 -16 25 -6 25 8 0 13 -3 12 -6 -1 -3 6 -17 17 -31 l18 -25 -7 25 c-6 19
-4 22 4 14 7 -6 25 -9 42 -5 16 3 69 5 118 3 73 -3 89 -6 84 -18 -3 -8 0 -14
7 -14 6 0 9 4 5 9 -3 5 -1 12 5 16 5 3 10 -1 10 -9 0 -9 7 -17 15 -17 8 -1 23
-2 33 -3 24 -2 43 -16 37 -27 -4 -5 4 -9 17 -9 13 0 29 -5 36 -12 9 -9 12 -9
13 2 1 8 4 4 8 -10 5 -16 13 -24 24 -22 11 2 17 -4 17 -18 0 -13 7 -20 20 -20
12 0 20 -7 20 -16 0 -22 27 -48 33 -31 3 6 6 -7 6 -30 1 -36 4 -43 21 -43 17
0 20 -7 20 -52 0 -38 3 -49 10 -38 5 8 10 10 10 5 0 -6 -5 -16 -12 -23 -9 -9
-7 -12 11 -12 14 0 20 4 15 12 -4 7 -3 8 5 4 6 -4 8 -13 4 -19 -4 -7 -8 -58
-8 -114 0 -60 -4 -103 -10 -104 -5 0 -11 5 -13 13 -2 9 0 8 8 -2 8 -10 10 -11
8 -2 -8 32 -23 13 -26 -33 -3 -61 -8 -76 -23 -73 -6 2 -14 -10 -16 -27 -5 -34
-21 -57 -34 -49 -5 3 -9 -2 -9 -12 0 -17 -27 -43 -45 -44 -5 0 -3 5 5 11 13 9
13 10 0 6 -8 -2 -14 -13 -12 -23 3 -14 1 -16 -8 -8 -15 15 -23 196 -10 245 6
21 16 39 23 40 7 0 3 4 -8 9 -17 7 -17 9 -2 9 14 1 17 11 17 61 0 41 -4 60
-12 60 -9 0 -8 4 2 11 12 8 11 9 -5 5 -18 -5 -20 -1 -20 39 1 25 -3 45 -8 45
-4 0 -5 5 -2 10 3 6 -3 10 -15 10 -12 0 -19 4 -15 9 7 12 -24 43 -35 36 -4 -3
-6 4 -3 15 4 16 0 20 -21 20 -19 0 -26 5 -26 20 0 19 -23 25 -96 23 -6 0 -9 8
-6 19 4 18 -1 19 -91 17 -78 -2 -94 -5 -85 -16 6 -7 7 -14 2 -15 -5 0 -13 -2
-19 -3 -5 -2 -26 -3 -46 -4 -28 -1 -38 -6 -42 -21 -3 -12 -14 -20 -27 -20 -17
0 -21 -5 -17 -19 3 -15 -1 -21 -17 -23 -11 -2 -20 -9 -18 -16 1 -7 -9 -17 -23
-22 -15 -6 -23 -15 -19 -23 3 -9 -4 -14 -23 -14 -86 -1 -93 -3 -93 -23 0 -22
-7 -25 -28 -11 -9 5 -12 26 -11 59 2 44 6 52 22 52 13 0 17 5 13 15 -3 8 1 20
8 27 10 11 9 16 -4 30 -20 22 -39 10 -42 -26 -3 -29 -25 -57 -25 -31 0 8 5 11
10 8 6 -4 7 -1 3 6 -14 22 -23 5 -25 -50 -1 -25 -4 -30 -18 -25 -16 5 -16 5
-2 -6 9 -7 14 -19 11 -27 -3 -9 0 -11 8 -6 9 5 11 4 6 -3 -10 -17 -26 -15 -26
4 0 8 -5 12 -10 9 -6 -4 -10 -12 -9 -18 1 -7 1 -31 0 -54 -1 -35 -4 -42 -23
-45 -15 -2 -22 -9 -22 -21 1 -10 0 -16 -3 -13 -3 3 -15 0 -27 -6 -11 -7 -25
-11 -29 -10 -5 1 -6 -2 -2 -8 3 -6 11 -8 16 -5 5 4 9 2 9 -3 0 -5 -10 -12 -21
-15 -16 -4 -20 -11 -16 -26 4 -16 0 -18 -18 -15 -14 2 -23 -1 -22 -9 1 -35 -4
-67 -10 -66 -5 1 -15 1 -23 0 -13 -1 -13 -2 0 -11 8 -5 10 -10 4 -10 -6 0 -10
-21 -10 -50 1 -45 -4 -54 -25 -52 -4 1 -5 -19 -4 -43 1 -25 -2 -45 -7 -45 -5
0 -6 -5 -2 -12 5 -7 8 -29 9 -50 1 -21 4 -40 7 -44 4 -3 5 9 4 28 -4 42 3 65
15 47 4 -7 5 -18 1 -23 -3 -6 -4 -29 -3 -51 5 -56 9 -99 10 -107 0 -5 8 -8 16
-8 8 0 16 -9 16 -20 1 -11 3 -24 4 -30 1 -5 3 -14 4 -20 0 -5 10 -10 20 -10
14 0 18 -5 14 -18 -2 -10 3 -25 13 -33 11 -9 15 -9 10 -1 -4 7 -2 12 5 12 6 0
9 -8 6 -20 -4 -16 0 -20 20 -20 13 0 22 -4 18 -9 -7 -12 24 -43 36 -36 5 4 9
-3 9 -14 0 -19 21 -28 54 -22 5 1 4 -4 -3 -13 -9 -11 -9 -16 0 -22 8 -4 9 -3
5 4 -4 7 -3 12 3 12 5 0 12 -4 15 -9 3 -4 20 -11 38 -15 27 -5 30 -9 18 -17
-13 -9 -13 -10 2 -6 9 3 19 3 23 -1 13 -13 245 -21 245 -8 0 5 7 3 15 -4 8 -7
15 -8 15 -3 0 4 18 8 40 7 22 0 40 2 40 6 0 4 12 5 28 3 15 -2 56 -6 92 -8 35
-2 75 -7 88 -10 15 -4 21 -2 17 5 -9 15 1 12 14 -4 10 -12 8 -14 -14 -12 -14
2 -28 0 -30 -4 -2 -4 6 -6 18 -6 12 1 28 -3 36 -8 11 -8 13 -8 8 0 -4 7 2 12
18 12 16 0 22 -5 18 -12 -4 -7 -1 -6 9 1 8 7 19 9 23 5 5 -4 5 -1 1 6 -4 7
-13 9 -19 6 -7 -4 -8 -3 -4 2 5 5 20 10 35 11 15 1 50 4 77 6 37 3 51 8 53 20
2 10 14 18 28 18 13 1 29 3 34 4 6 1 13 3 18 4 4 1 0 6 -8 11 -12 7 -8 11 18
16 22 5 32 12 32 25 0 12 7 19 19 19 10 0 21 9 24 20 3 11 12 20 21 20 14 0
20 12 17 33 0 4 8 7 20 7 14 0 19 5 16 15 -4 8 -2 17 4 21 6 3 8 13 5 23 -5
13 -4 13 8 -2 12 -15 14 -16 20 -2 3 8 0 15 -6 15 -9 0 -9 3 0 12 7 7 13 26
13 43 1 16 3 22 6 12 2 -9 9 -17 15 -17 5 0 8 7 4 15 -3 8 -1 15 5 15 6 0 8 4
5 9 -4 5 -2 21 4 36 5 14 7 24 2 22 -4 -3 -7 6 -7 19 0 13 6 24 13 24 6 0 12
-5 12 -12 0 -6 3 -8 6 -5 10 10 -17 38 -30 30 -6 -3 -8 -3 -4 2 4 4 2 15 -5
23 -8 11 -8 14 0 9 6 -4 13 -2 15 5 3 9 6 9 12 0 4 -7 2 -12 -4 -12 -6 0 -8
-5 -5 -10 10 -16 23 -11 20 7 -1 10 2 28 6 41 5 12 5 22 0 22 -5 0 -7 16 -4
35 3 22 0 35 -7 35 -6 0 -8 -4 -5 -10 3 -5 2 -17 -3 -26 -6 -11 -11 -13 -16
-5 -4 6 -2 11 3 11 6 0 11 5 11 11 0 5 -3 8 -7 6 -5 -3 -8 26 -8 64 1 58 -2
69 -16 69 -17 0 -34 53 -23 71 3 5 -4 9 -14 9 -15 0 -22 10 -28 38 -4 22 -9
30 -11 20 -3 -10 -9 -18 -15 -18 -6 0 -9 3 -5 6 9 10 -22 66 -33 59 -6 -4 -10
-2 -10 3 0 5 -9 12 -20 15 -15 4 -20 14 -20 37 0 18 -7 38 -16 44 -16 12 -22
33 -23 84 -1 25 -5 32 -17 30 -12 -2 -17 6 -20 31 -5 38 -10 46 -27 46 -7 0
-12 6 -12 12 0 7 -10 20 -22 28 -13 9 -23 23 -23 31 0 8 -7 14 -15 14 -8 0
-15 7 -15 15 0 14 -10 19 -26 13 -4 -2 -10 7 -15 20 -5 12 -17 22 -28 22 -11
0 -22 9 -26 23 -4 14 -8 17 -12 9 -3 -8 -9 -10 -16 -4 -19 14 -70 25 -62 13 3
-7 0 -8 -10 -5 -12 5 -13 10 -4 20 6 8 16 11 23 7 6 -3 7 -2 3 2 -7 9 -323 16
-331 8z m408 -79 c3 -8 2 -12 -4 -9 -6 3 -10 10 -10 16 0 14 7 11 14 -7z
m-182 -173 c11 -11 10 -12 -8 -3 -16 9 -21 8 -21 -3 0 -8 3 -14 6 -13 30 3
101 -4 100 -9 -4 -22 3 -33 20 -33 20 0 36 -46 19 -56 -6 -4 -6 -10 1 -17 6
-6 11 -16 11 -21 0 -6 -5 -3 -11 6 -7 13 -18 16 -42 12 -24 -4 -28 -3 -17 5
13 9 13 11 -2 11 -10 0 -18 -4 -18 -8 0 -4 -12 -8 -27 -9 -16 0 -47 -1 -70 -2
-35 -1 -41 -4 -36 -18 5 -13 2 -12 -14 4 -17 17 -32 19 -101 18 -45 -1 -82 2
-82 7 0 5 -6 6 -12 2 -7 -4 -5 2 5 13 9 11 17 27 17 36 0 11 8 17 25 17 17 0
23 4 19 14 -7 19 4 24 59 27 28 2 48 8 51 16 4 11 1 11 -14 3 -18 -10 -28 -1
-15 12 12 12 144 3 157 -11z m191 -208 c-3 -7 -1 -13 5 -13 11 0 11 -18 0 -35
-4 -6 -3 -17 2 -25 5 -8 5 -21 0 -31 -7 -13 -25 -17 -81 -18 -117 -2 -130 -9
-108 -54 10 -22 10 -22 -6 -2 -9 11 -22 18 -28 16 -7 -2 -21 -4 -32 -5 -10 0
-22 -10 -25 -22 -3 -13 -12 -20 -22 -18 -13 1 -18 -5 -18 -22 0 -18 -5 -24
-17 -22 -18 3 -20 -1 -22 -51 -1 -26 -4 -29 -26 -25 -19 3 -28 -1 -36 -18
l-10 -23 5 23 c4 20 -8 28 -30 20 -4 -2 -10 7 -15 20 -5 13 -17 22 -31 23 -13
0 -18 3 -12 5 7 3 9 18 4 44 -6 33 -5 38 6 29 9 -8 15 -5 23 9 6 11 7 22 4 26
-3 3 -1 6 6 6 7 0 9 5 5 13 -6 8 -3 8 9 -1 14 -12 16 -11 12 7 -2 14 1 21 11
21 8 0 14 5 14 11 0 5 -4 7 -10 4 -5 -3 -10 -1 -10 5 0 6 6 10 13 9 26 -3 38
1 31 13 -5 8 0 9 17 5 23 -6 23 -5 5 8 -20 15 -20 15 0 16 10 1 27 2 37 2 10
0 17 7 17 18 0 17 22 25 53 20 5 -1 16 8 25 19 14 17 31 20 109 22 93 3 100 5
84 24 -5 6 4 -1 19 -15 15 -14 25 -31 23 -38z m-241 43 c7 4 8 2 4 -5 -9 -13
-26 -5 -25 12 0 9 2 8 6 -1 2 -6 10 -9 15 -6z m-208 -11 c28 -1 61 -3 74 -4
15 -1 22 -7 22 -22 0 -11 -4 -17 -10 -14 -5 3 -17 -3 -27 -15 -10 -11 -23 -20
-30 -20 -12 0 -17 -13 -14 -32 0 -5 -8 -8 -19 -8 -18 0 -24 -10 -22 -31 1 -4
-22 -7 -51 -8 -96 -4 -102 -5 -99 -24 2 -9 -1 -17 -5 -16 -33 6 -73 -3 -73
-15 0 -8 6 -17 13 -19 6 -3 -3 -6 -20 -6 -26 -1 -33 -5 -33 -21 0 -18 -10 -25
-32 -21 -8 1 -12 -29 -8 -62 1 -9 -2 -17 -7 -16 -28 5 -33 -4 -33 -62 0 -45
-3 -58 -12 -53 -10 6 -10 5 -1 -7 6 -8 13 -45 14 -81 2 -55 5 -67 21 -71 16
-5 25 -36 19 -70 0 -4 2 -6 6 -6 22 4 33 -3 33 -20 0 -13 8 -21 23 -23 15 -2
21 -9 19 -20 -2 -10 2 -18 8 -18 5 0 10 5 10 12 0 6 9 1 20 -12 11 -13 20 -18
20 -12 0 7 5 12 10 12 6 0 10 -9 10 -20 0 -18 7 -20 71 -20 62 0 71 -2 76 -20
3 -11 14 -20 24 -20 12 0 19 -7 19 -20 0 -13 7 -20 20 -20 13 0 20 -7 20 -18
0 -11 8 -18 21 -19 29 -2 35 -11 20 -26 -14 -14 -269 -19 -277 -5 -3 4 -10 8
-15 8 -6 0 -7 -5 -3 -12 5 -7 3 -8 -5 -4 -7 5 -10 14 -7 22 6 15 3 16 -51 17
-25 1 -33 6 -33 19 0 11 -7 18 -18 18 -9 0 -23 9 -30 20 -7 11 -19 20 -27 20
-8 0 -15 5 -15 11 0 6 -7 9 -14 6 -10 -4 -13 -1 -10 7 3 7 -2 16 -10 19 -9 4
-16 11 -16 17 0 6 5 8 12 4 7 -4 8 -3 4 5 -6 8 -12 9 -20 2 -9 -8 -13 -7 -13
2 -1 26 -9 42 -22 48 -8 3 -16 20 -17 38 -3 41 -9 47 -29 31 -9 -7 -18 -10
-22 -6 -3 3 -1 6 6 6 7 0 11 7 8 15 -4 8 -2 17 4 21 7 4 6 10 0 18 -6 7 -8 15
-5 19 3 3 0 15 -6 27 -7 12 -8 20 -3 17 6 -4 7 9 3 31 -5 32 -9 37 -30 34 -17
-1 -21 1 -12 6 10 7 10 11 -3 22 -18 15 -20 30 -3 30 6 0 8 -3 5 -7 -9 -9 13
-34 24 -27 5 3 9 0 9 -5 0 -6 3 -11 8 -11 4 0 7 26 6 58 -1 31 3 65 9 76 5 10
5 16 0 13 -4 -3 -9 9 -9 25 -1 24 1 27 8 14 11 -19 24 -21 26 -3 7 53 11 62
25 65 9 2 17 12 17 23 0 10 4 19 10 19 5 0 6 8 3 17 -5 12 -2 15 9 10 17 -6
33 17 23 33 -3 4 11 11 31 15 29 5 33 9 22 18 -7 7 -11 11 -9 10 2 -1 16 4 31
12 16 8 30 11 33 7 2 -4 2 -1 1 5 -4 15 25 31 49 28 9 -2 17 1 17 6 0 6 5 7
12 3 6 -4 8 -3 4 4 -10 16 5 21 67 23 31 1 61 6 68 10 7 4 17 5 22 2 6 -3 33
-7 61 -8z m511 -63 c-3 -3 -11 0 -18 7 -9 10 -8 11 6 5 10 -3 15 -9 12 -12z
m-21 -24 c1 -7 5 -19 10 -27 6 -9 0 -7 -17 4 -21 13 -24 19 -14 30 13 14 18
13 21 -7z m296 -18 c0 -5 -5 -10 -11 -10 -5 0 -7 5 -4 10 3 6 8 10 11 10 2 0
4 -4 4 -10z m-29 -25 c5 4 6 -1 3 -9 -5 -14 28 -41 39 -30 3 3 5 -1 4 -8 -1
-41 4 -62 12 -49 7 11 11 8 17 -10 10 -30 15 -50 16 -66 1 -7 5 -10 10 -7 5 4
7 13 4 21 -3 8 -2 11 3 8 6 -3 10 -13 10 -23 0 -9 2 -32 4 -49 2 -18 4 -51 5
-73 1 -22 7 -40 13 -40 5 0 7 5 4 10 -3 6 -1 10 4 10 6 0 11 -4 11 -9 0 -13
-26 -32 -34 -24 -4 4 -4 0 -1 -9 5 -13 11 -13 30 -4 13 6 21 14 19 18 -3 5 -3
8 0 8 3 0 7 -4 11 -9 3 -6 -10 -17 -30 -27 -33 -15 -34 -17 -18 -31 10 -8 12
-12 6 -8 -14 7 -15 6 -17 -47 -1 -20 -5 -40 -9 -44 -4 -4 -1 -14 6 -22 9 -13
9 -14 0 -8 -8 4 -13 2 -13 -4 0 -6 -4 -9 -9 -6 -10 6 -24 -52 -15 -65 3 -5 -4
-9 -15 -9 -19 0 -26 -10 -22 -32 0 -5 -8 -8 -20 -8 -11 0 -17 -5 -14 -10 4 -6
11 -7 17 -4 7 4 8 2 4 -5 -4 -6 -10 -9 -14 -7 -4 2 -12 -2 -19 -9 -10 -11 -10
-15 0 -19 7 -4 2 -4 -11 -2 -18 3 -21 1 -13 -8 8 -9 7 -13 -4 -14 -8 -1 -22
-3 -30 -4 -8 -1 -12 -5 -9 -10 3 -5 10 -5 16 -2 7 4 8 2 4 -5 -4 -6 -12 -9
-17 -6 -5 4 -9 1 -9 -4 0 -6 -10 -11 -21 -11 -17 0 -20 -5 -17 -25 4 -16 1
-22 -6 -17 -17 10 -35 11 -41 2 -3 -5 -12 -7 -20 -3 -20 7 -19 -7 0 -21 12 -8
0 -11 -52 -11 -65 0 -98 -9 -88 -25 2 -4 -5 -16 -18 -26 -20 -18 -21 -18 -7 0
26 33 21 46 -18 47 -21 0 -66 2 -102 3 -47 2 -70 -1 -83 -12 -14 -13 -20 -13
-30 -3 -10 10 -8 12 8 9 16 -2 20 3 20 22 0 16 -5 24 -14 22 -8 -2 -18 3 -22
10 -6 10 -9 10 -9 1 0 -7 -7 -10 -15 -7 -8 4 -15 12 -15 20 0 8 -9 14 -20 14
-12 0 -20 7 -20 16 0 9 -9 18 -20 21 -11 3 -20 11 -20 19 0 7 -4 15 -9 18 -5
4 -7 -4 -4 -16 4 -18 1 -16 -15 8 -11 18 -24 34 -29 36 -4 3 -2 3 5 2 6 -2 12
1 12 6 0 6 -6 10 -14 10 -8 0 -18 9 -21 20 -3 11 -13 20 -21 20 -8 0 -15 9
-15 20 -1 11 -3 25 -4 30 -1 6 -3 15 -4 20 0 6 -7 10 -14 10 -9 0 -14 13 -15
34 -1 25 3 35 18 39 11 3 21 -1 24 -10 4 -9 1 -12 -7 -7 -8 5 -9 4 -2 -4 6 -7
28 -14 50 -16 22 -2 49 -7 59 -12 12 -4 17 -4 13 2 -3 6 -2 15 2 22 4 8 11 5
19 -8 9 -14 9 -19 1 -18 -6 2 -14 -3 -16 -9 -4 -11 16 -18 40 -14 5 1 5 -4 1
-10 -5 -9 -2 -10 9 -6 11 4 14 2 11 -7 -3 -8 7 -26 23 -40 15 -14 28 -32 28
-39 0 -6 6 -13 13 -13 6 -1 19 -2 28 -3 9 -1 12 -6 8 -13 -6 -10 -5 -10 7 -2
11 9 17 9 27 -2 10 -10 10 -14 1 -14 -7 0 -9 -3 -6 -6 4 -4 14 -1 24 7 11 9
14 10 9 2 -6 -10 19 -13 112 -13 65 0 121 3 125 6 9 10 -4 34 -16 27 -6 -3 -7
-1 -3 6 4 7 13 8 22 3 26 -14 74 -2 74 19 0 12 7 19 19 19 13 0 21 8 23 22 2
13 10 23 18 23 9 0 16 11 18 29 4 28 25 60 34 50 3 -2 6 24 7 58 1 36 7 66 14
70 9 6 9 8 -1 8 -7 0 -12 8 -11 18 1 9 1 38 0 63 -1 36 -5 48 -19 51 -14 4
-18 17 -19 58 -2 46 -1 51 11 35 10 -14 15 -15 21 -5 5 9 4 11 -3 6 -8 -5 -12
1 -12 16 0 18 2 20 10 8 7 -11 10 0 10 37 0 53 10 97 18 75 2 -7 8 -10 13 -7z
m-271 -4 c0 -6 -4 -12 -8 -15 -5 -3 -9 1 -9 9 0 8 4 15 9 15 4 0 8 -4 8 -9z
m-120 -70 c6 0 9 -4 9 -8 -4 -22 3 -32 16 -27 14 6 20 -14 18 -63 -1 -7 11
-13 26 -13 20 0 22 -3 11 -9 -8 -6 -18 -7 -24 -4 -5 3 -6 1 -2 -6 4 -6 12 -9
17 -6 5 4 10 -13 10 -37 6 -217 2 -265 -20 -260 -7 1 -10 -2 -6 -7 3 -6 11 -9
18 -8 7 2 2 -1 -10 -7 -13 -5 -22 -15 -22 -20 5 -43 -2 -66 -21 -66 -11 0 -19
-3 -19 -7 4 -27 -3 -34 -33 -31 -20 2 -32 8 -31 15 3 12 -12 18 -61 25 -31 5
-31 68 0 68 8 0 14 10 14 25 0 15 6 25 14 25 8 0 18 5 22 11 4 8 -1 9 -17 5
l-24 -6 23 11 c21 11 22 18 22 116 0 66 -4 103 -11 103 -21 0 -34 26 -33 67 1
37 -1 41 -16 33 -14 -8 -17 -5 -16 18 1 23 6 28 39 32 21 3 38 8 37 13 0 4 0
10 0 15 0 6 34 8 70 3z m-504 -42 c1 -5 2 -16 3 -25 1 -10 7 -14 16 -10 10 4
15 -1 15 -14 0 -10 8 -24 18 -29 9 -6 11 -11 5 -11 -7 0 -13 -4 -13 -10 0 -6
3 -9 8 -9 22 4 56 -2 47 -9 -16 -12 -15 -28 3 -28 31 -1 47 -9 54 -25 5 -14
35 -19 123 -21 6 0 19 3 29 8 15 6 18 4 13 -9 -8 -20 14 -39 33 -27 8 5 11 12
7 17 -5 4 -12 1 -16 -6 -6 -9 -11 -10 -15 -2 -4 6 -2 11 4 11 6 0 9 4 6 9 -4
5 3 7 15 4 27 -7 37 -36 34 -98 -3 -69 -3 -69 -20 -55 -13 10 -15 9 -15 -11 0
-21 -5 -24 -35 -25 -19 0 -35 4 -35 8 0 5 8 7 18 4 9 -3 23 -2 30 2 7 5 -7 9
-35 10 -91 2 -188 14 -198 24 -7 8 -6 9 2 4 6 -3 14 -2 17 3 4 5 -12 12 -34
16 -23 4 -40 12 -40 20 0 8 -10 15 -22 17 -13 2 -22 9 -21 15 1 6 -4 14 -13
17 -10 4 -13 2 -8 -6 4 -7 3 -8 -4 -4 -7 4 -12 16 -12 27 0 12 -10 23 -25 29
-16 6 -23 14 -19 25 6 13 -6 20 -28 16 -5 0 -8 8 -8 19 0 10 -8 24 -17 30 -15
9 -15 11 -2 7 9 -3 16 0 16 6 -1 44 4 57 23 57 14 0 20 7 20 22 0 12 3 19 6
16 3 -3 17 -3 32 2 28 7 36 5 38 -11z m608 -55 c3 -8 2 -12 -4 -9 -6 3 -10 10
-10 16 0 14 7 11 14 -7z m-257 -54 l3 -40 -39 0 c-30 0 -40 4 -44 19 -3 11 -2
23 2 26 3 4 7 11 7 16 1 5 2 10 3 12 0 2 16 4 34 5 31 2 32 1 34 -38z m-507
-60 c0 -14 6 -20 18 -18 11 2 18 -5 20 -20 2 -16 8 -22 18 -18 13 5 19 -6 15
-27 -1 -4 10 -12 24 -17 14 -5 25 -16 25 -25 0 -8 7 -15 15 -15 8 0 16 -9 16
-20 2 -25 6 -76 8 -91 0 -5 5 -8 9 -5 4 2 14 1 22 -5 10 -6 11 -9 3 -9 -9 0
-10 -7 -3 -25 5 -14 6 -25 2 -25 -4 -1 4 -10 18 -22 15 -13 18 -19 8 -15 -10
3 -20 1 -24 -5 -4 -7 -9 -6 -15 3 -6 10 -9 11 -9 2 0 -7 -5 -13 -11 -13 -5 0
-7 5 -3 11 9 15 -14 29 -48 29 -21 0 -28 5 -28 20 0 13 -7 20 -20 20 -14 0
-20 7 -20 21 0 16 -5 20 -20 16 -17 -4 -20 0 -20 26 0 35 -12 61 -26 55 -5 -1
-10 41 -11 95 -2 90 0 97 18 97 12 0 19 -7 19 -20z m977 -77 c-2 -80 -5 -98
-17 -98 -10 0 -16 -12 -18 -37 -3 -30 -7 -38 -23 -38 -12 0 -19 -7 -19 -20 0
-13 -7 -20 -20 -20 -13 0 -20 -7 -20 -20 0 -16 -7 -20 -32 -21 -18 -1 -37 -1
-42 0 -5 1 -4 -5 4 -13 7 -9 11 -16 9 -17 -2 -1 -16 -2 -30 -3 -26 -3 -27 -2
-25 55 0 32 2 54 4 49 2 -6 10 -6 21 -1 13 7 17 22 17 64 -1 31 1 55 4 55 20
-1 30 4 30 17 0 9 11 20 24 25 18 6 23 14 19 29 -4 16 -1 19 15 14 16 -4 21 1
24 19 2 15 9 22 21 20 11 -2 17 4 17 18 0 13 7 20 19 20 18 0 19 -7 18 -97z
m-1252 77 c3 -5 -1 -10 -10 -10 -9 0 -13 5 -10 10 3 6 8 10 10 10 2 0 7 -4 10
-10z m699 -199 c-8 -8 -34 -10 -38 -2 -3 4 6 7 19 7 14 0 22 -2 19 -5z m566
-1 c0 -5 -2 -10 -4 -10 -3 0 -8 5 -11 10 -3 6 -1 10 4 10 6 0 11 -4 11 -10z
m-25 -70 c3 -6 -1 -7 -9 -4 -18 7 -21 14 -7 14 6 0 13 -4 16 -10z m-474 -83
c-10 -9 -11 -8 -5 6 3 10 9 15 12 12 3 -3 0 -11 -7 -18z m-546 -117 c3 -6 -1
-7 -9 -4 -18 7 -21 14 -7 14 6 0 13 -4 16 -10z m756 -127 c3 1 1 -2 -3 -8 -5
-5 -15 -2 -26 9 -16 18 -16 18 4 8 12 -6 23 -10 25 -9z"/>
<path d="M996 1458 c3 -5 10 -6 15 -3 13 9 11 12 -6 12 -8 0 -12 -4 -9 -9z"/>
<path d="M775 1360 c-6 -10 -5 -11 32 -15 16 -2 20 2 15 13 -4 11 -7 12 -10 4
-2 -7 -8 -12 -13 -12 -6 0 -7 5 -4 10 3 6 2 10 -4 10 -5 0 -13 -4 -16 -10z"/>
<path d="M1137 1353 c4 -9 10 -10 24 -2 25 13 24 15 -5 15 -15 0 -22 -5 -19
-13z"/>
<path d="M727 656 c-4 -10 -1 -13 8 -9 8 3 12 9 9 14 -7 12 -11 11 -17 -5z"/>
<path d="M1035 330 c3 -5 8 -10 11 -10 2 0 4 5 4 10 0 6 -5 10 -11 10 -5 0 -7
-4 -4 -10z"/>
<path d="M1070 942 c0 -12 19 -26 26 -19 2 2 -2 10 -11 17 -9 8 -15 8 -15 2z"/>
<path d="M1040 600 c-9 -6 -10 -10 -3 -10 6 0 15 5 18 10 8 12 4 12 -15 0z"/>
<path d="M965 852 c-15 -10 -16 -29 -2 -29 7 0 13 9 13 19 0 10 0 18 -1 18 0
0 -4 -4 -10 -8z"/>
<path d="M677 613 c-10 -9 -9 -23 1 -23 5 0 9 7 9 15 0 17 -1 18 -10 8z"/>
<path d="M1270 600 c0 -5 5 -10 10 -10 6 0 10 5 10 10 0 6 -4 10 -10 10 -5 0
-10 -4 -10 -10z"/>
<path d="M710 1680 c-13 -8 -12 -10 3 -10 9 0 17 5 17 10 0 12 -1 12 -20 0z"/>
<path d="M1385 1561 c-6 -11 13 -26 22 -17 4 3 1 6 -6 6 -7 0 -9 5 -6 10 3 6
4 10 1 10 -3 0 -7 -4 -11 -9z"/>
<path d="M860 1521 c0 -10 19 -25 25 -20 1 2 -3 10 -11 17 -8 7 -14 8 -14 3z"/>
<path d="M1085 1521 c-3 -5 -2 -12 3 -15 5 -3 9 1 9 9 0 17 -3 19 -12 6z"/>
<path d="M1467 1436 c-4 -10 -1 -13 8 -9 8 3 12 9 9 14 -7 12 -11 11 -17 -5z"/>
<path d="M1510 1333 c0 -13 5 -23 10 -23 13 0 13 11 0 30 -8 12 -10 11 -10 -7z"/>
<path d="M1465 1269 c-4 -6 -5 -12 -2 -15 2 -3 7 2 10 11 7 17 1 20 -8 4z"/>
<path d="M730 255 c0 -2 8 -9 17 -16 10 -9 14 -9 10 -2 -6 9 2 11 28 9 20 -2
33 -1 30 2 -6 6 -85 12 -85 7z"/>
</g>
</svg>
