<svg xmlns="http://www.w3.org/2000/svg" xmlns:xlink="http://www.w3.org/1999/xlink" version="1.1" x="0px" y="0px" viewBox="0 0 50 50" enable-background="new 0 0 50 50" xml:space="preserve"><path d="M38.847,18.261C38.07,11.183,32.162,5.87,25,5.87s-13.07,5.313-13.847,12.391c-5.73,4.205-7.372,11.97-3.796,18.169  c3.466,6.01,11.025,8.695,17.654,5.787C40.146,48.861,52.118,28,38.847,18.261z M37.882,18.577c0.199,2.062-0.118,4.277-0.953,6.238  v0.002c-0.688,1.638-1.888,3.383-3.575,4.817c0.03-1.657-0.298-3.631-0.983-5.336c0.423-0.698,0.697-1.357,0.893-2.002l0.015,0.004  c0.163-0.648,0.105-0.413,0.236-0.974l-0.022-0.007c0.294-1.589,0.131-3.133-0.421-4.583l0.062,0.008l-0.426-0.842  c-0.001-0.001-0.001-0.002-0.002-0.003l-0.119-0.234l-0.021-0.003c-3.301-6.042-11.92-5.926-15.146,0.003  c-1.838,0.258-3.667,0.944-5.155,1.835C14.866,2.805,36.483,3.643,37.882,18.577z M31.113,37.05  c1.137-1.759,1.905-3.861,2.151-6.035c1.94-1.432,3.613-3.614,4.167-4.907C39.819,31.122,36.411,36.671,31.113,37.05z   M25.736,35.348c0.49-0.53,0.909-1.138,1.246-1.752l0.022-0.003l0.118-0.233c0.003-0.003,0.427-0.841,0.429-0.845l-0.063,0.008  c0.539-1.41,0.723-2.969,0.425-4.588l0.016-0.005c-0.139-0.611-0.079-0.354-0.228-0.977l-0.034,0.011  c-0.345-1.159-0.91-2.315-1.935-3.407c1.238-1.009,2.626-1.543,4.151-1.692c3.113,4.191,3.468,10.352,0.015,15.178  C28.238,36.892,26.926,36.319,25.736,35.348z M18.897,37.056c-5.66-0.397-8.607-6.391-6.329-10.948c0.4,1,1.951,3.258,4.167,4.907  C16.985,33.247,17.786,35.352,18.897,37.056z M16.739,22.323c0.143,0.508,0.479,1.286,0.891,1.963l-0.005,0.013  c0,0,0.645,0.986,0.656,1.003l0.024-0.056c1.039,1.278,2.34,2.161,3.769,2.67L22.07,27.93l0.441,0.138  c0.001,0.001,0.007,0.002,0.007,0.002l0.511,0.151l0.006-0.029c1.427,0.34,2.914,0.263,3.915,0.022  c0.241,1.451,0.067,2.995-0.603,4.438c-5.712,0.617-10.924-2.587-13.155-7.591C14.079,23.803,15.224,22.888,16.739,22.323z   M18.899,21.847c-0.267,0.409-0.511,0.837-0.741,1.292c-0.117-0.236-0.198-0.332-0.438-1.119  C18.143,21.932,18.384,21.883,18.899,21.847z M18.671,15.543c2.886-4.449,9.739-4.5,12.658,0c-2.083-0.118-4.382,0.281-6.329,1.149  C23.015,15.813,20.693,15.427,18.671,15.543z M31.842,23.14c-0.235-0.462-0.462-0.863-0.741-1.292  c0.43,0.033,0.729,0.071,1.179,0.173C32.068,22.727,31.973,22.869,31.842,23.14z M31.921,16.6c0.668,1.438,0.867,2.955,0.604,4.447  c-0.57-0.143-1.41-0.234-2.167-0.211l-0.007-0.009c-0.386,0.02-0.668,0.04-1.218,0.075l0.035,0.044  c-1.57,0.257-2.987,0.926-4.156,1.913L25,22.847c-0.368,0.342-0.309,0.288-0.731,0.686l0.027,0.025  c-0.873,0.929-1.576,2.019-1.982,3.384c-1.253-0.418-2.64-1.448-3.548-2.746C21.21,18.832,26.531,16.035,31.921,16.6z   M26.704,27.224c-1.271,0.302-2.269,0.27-3.409-0.001c0.351-1.169,0.823-2.012,1.705-2.957  C25.945,25.283,26.378,26.12,26.704,27.224z M25,34.631c-0.544-0.587-0.577-0.686-0.73-0.913c0.607,0.033,0.946,0.027,1.459,0  C25.563,33.967,25.469,34.127,25,34.631z M8.223,35.93C2.222,25.528,12.43,13.191,23.787,17.289  c-1.494,0.828-3.022,2.096-4.154,3.54c-0.667-0.024-1.432,0.051-2.183,0.229l-0.003-0.013l-0.505,0.146c0,0,0,0,0,0  s-0.002,0-0.455,0.138l0.005,0.023c-1.506,0.537-2.75,1.409-3.761,2.656l-0.025-0.059c-0.956,1.466-0.035,0.054-0.66,1.011  l0.009,0.022c-3.43,5.637,0.411,13.101,7.576,13.101c1.084,1.386,2.629,2.692,4.173,3.552C17.923,43.758,11.329,41.314,8.223,35.93z   M24.111,40.657c-3.216-1.868-5.549-5.025-6.252-8.892c1.348,0.818,3.308,1.563,5.139,1.825c0.234,0.43,0.728,1.147,1.304,1.761  l-0.028,0.026c0.565,0.539,0.305,0.292,0.727,0.689l0.02-0.019c1.243,1.055,2.639,1.682,4.19,1.923l-0.033,0.044  c1.019,0.059,0.866,0.05,1.202,0.067l0.004-0.006c6.783,0.181,11.103-7.333,7.568-13.115c0.658-1.634,1.014-3.514,0.987-5.369  C50.807,29.555,37.809,48.584,24.111,40.657z"/></svg>